<svg width="30" height="30" viewBox="0 0 30 30" fill="none" xmlns="http://www.w3.org/2000/svg">
<path d="M10.1473 16.6122H10.2223V16.5372V15.9729V15.8979H10.1473H8.38143H8.30643V15.9729V16.5372V16.6122H8.38143H10.1473ZM9.63105 22.0987H20.376C20.5736 23.4304 21.8572 24.45 23.3915 24.45C24.9259 24.45 26.2095 23.4303 26.4079 22.0987H27.8071C28.0156 22.0987 28.2 21.947 28.2 21.7415V5.28216C28.2 5.07662 28.0156 4.925 27.8071 4.925H11.9141C11.7056 4.925 11.5212 5.07662 11.5212 5.28216V8.84389H4.88673C4.75019 8.84389 4.62015 8.90861 4.54838 9.01908C4.54837 9.01909 4.54836 9.0191 4.54835 9.01912L0.982653 14.5009C0.982566 14.501 0.98248 14.5011 0.982393 14.5012C0.946865 14.5546 0.925 14.6182 0.925 14.6875V20.1739C0.925 21.2432 1.90227 22.0987 3.08375 22.0987H3.60003C3.79758 23.4304 5.08118 24.45 6.61554 24.45C8.1499 24.45 9.43349 23.4304 9.63105 22.0987ZM21.1355 21.7415C21.1355 20.6499 22.1387 19.7473 23.3915 19.7473C24.6443 19.7473 25.6475 20.6499 25.6475 21.7415C25.6475 22.8331 24.6443 23.7357 23.3915 23.7357C22.1387 23.7357 21.1355 22.8331 21.1355 21.7415ZM4.35956 21.7415C4.35956 20.6499 5.36274 19.7473 6.61554 19.7473C7.86834 19.7473 8.87152 20.6499 8.87152 21.7415C8.87152 22.8331 7.86834 23.7357 6.61554 23.7357C5.36274 23.7357 4.35956 22.8331 4.35956 21.7415ZM27.4134 13.5118V21.3843H26.407C26.2095 20.0527 24.9268 19.033 23.3915 19.033C21.8563 19.033 20.5735 20.0527 20.376 21.3843H12.3061V5.63932H27.4134V13.5118ZM11.5204 15.0447V21.3843H9.63105C9.43349 20.0527 8.1499 19.033 6.61554 19.033C5.08118 19.033 3.79758 20.0527 3.60003 21.3843H3.08375C2.31834 21.3843 1.71072 20.8329 1.71072 20.1739V15.0447H11.5204ZM11.5204 14.3303H9.65724V9.55821H11.5204V14.3303ZM8.87152 9.55821V14.3303H2.00707L5.11107 9.55821H8.87152Z" fill="#001529" stroke="#001529" stroke-width="0.15"/>
</svg>
