<svg width="30" height="30" viewBox="0 0 30 30" fill="none" xmlns="http://www.w3.org/2000/svg">
<path d="M9.07085 4.75637C8.90815 4.83113 8.76303 4.98504 8.70147 5.14774C8.67509 5.2181 8.6531 5.53471 8.6531 5.86012V6.44497L7.36906 6.46256C6.10701 6.47576 6.07183 6.48015 5.74642 6.59449C4.83176 6.91549 4.19414 7.54872 3.87313 8.45459L3.75 8.80638V16.8316V24.8569L3.87313 25.2087C4.19414 26.1145 4.82736 26.7434 5.74642 27.0688L6.08062 27.1875H14.9854H23.8901L24.2419 27.0644C25.1477 26.7434 25.7766 26.1101 26.102 25.1911L26.2207 24.8569V16.8316V8.80638L26.102 8.47218C25.7766 7.55312 25.1477 6.91989 24.2419 6.59888C23.8945 6.48015 23.8813 6.47576 22.606 6.46256L21.322 6.44497L21.3088 5.79416C21.2956 5.08178 21.2736 5.01582 20.9922 4.80914C20.8207 4.68162 20.4073 4.68162 20.2358 4.80914C19.9544 5.01582 19.9324 5.08178 19.9192 5.79856L19.906 6.45377H14.9854H10.0647L10.0515 5.79856C10.0383 5.08618 10.0163 5.01582 9.74365 4.81354C9.59414 4.70361 9.24675 4.67282 9.07085 4.75637ZM8.66189 8.34025C8.67509 8.85915 8.71466 8.96029 8.97851 9.15377C9.15 9.2813 9.56336 9.2813 9.73486 9.15377C9.9987 8.96029 10.0383 8.85915 10.0515 8.34025L10.0691 7.86094H14.9854H19.9016L19.9192 8.34025C19.9324 8.85915 19.972 8.96029 20.2358 9.15377C20.4073 9.2813 20.8207 9.2813 20.9922 9.15377C21.256 8.96029 21.2956 8.85915 21.3088 8.34025L21.3264 7.85654L22.5181 7.86973L23.7142 7.88292L23.9648 8.00605C24.2815 8.15996 24.5365 8.41501 24.6904 8.73162C24.8135 8.98227 24.8135 8.98667 24.8267 10.0025L24.8399 11.0271H14.9897H5.13518V10.0904C5.13518 9.39563 5.15277 9.09661 5.19674 8.9383C5.33306 8.49416 5.71564 8.094 6.15977 7.94009C6.35766 7.87413 6.55114 7.86533 7.51857 7.86094H8.6443L8.66189 8.34025ZM24.8267 18.5554L24.8135 24.681L24.6948 24.9228C24.5409 25.2351 24.2683 25.5077 23.9604 25.6616L23.7142 25.7803H14.9854H6.25652L6.01466 25.6616C5.70244 25.5077 5.42981 25.2351 5.2759 24.9272L5.15717 24.681L5.14398 18.5554L5.13518 12.4342H14.9854H24.8355L24.8267 18.5554Z" fill="#001529"/>
</svg>
