<svg width="30" height="30" viewBox="0 0 30 30" fill="none" xmlns="http://www.w3.org/2000/svg">
<path d="M14.3459 4.39878C14.164 4.32554 13.961 4.32554 13.7791 4.39878L4.68727 8.05278L8.34961 9.52387L17.7248 5.7566L14.3459 4.39878ZM19.7754 6.58169L10.4002 10.349L14.0625 11.8201L23.4377 8.05278L19.7754 6.58169ZM24.7266 9.18404L14.8242 13.1641V25.291L24.7266 21.311V9.18404ZM13.3008 25.2926V13.1626L3.39844 9.18404V21.3125L13.3008 25.2926ZM13.2139 2.97668C13.7587 2.75777 14.3663 2.75777 14.9111 2.97668L25.7716 7.3425C25.9128 7.39936 26.0339 7.4974 26.1191 7.62399C26.2044 7.75059 26.25 7.89993 26.25 8.05278V21.3125C26.2498 21.6184 26.1584 21.9172 25.9876 22.1704C25.8168 22.4236 25.5745 22.6196 25.2918 22.7331L14.3459 27.1326C14.164 27.2058 13.961 27.2058 13.7791 27.1326L2.83477 22.7331C2.55179 22.6198 2.30909 22.424 2.13801 22.1707C1.96693 21.9175 1.87531 21.6186 1.875 21.3125V8.05278C1.87504 7.89993 1.92062 7.75059 2.00587 7.62399C2.09113 7.4974 2.21216 7.39936 2.35336 7.3425L13.2139 2.97668Z" fill="#001529"/>
</svg>
