<svg width="30" height="30" viewBox="0 0 30 30" fill="none" xmlns="http://www.w3.org/2000/svg">
<path d="M13.8868 0.0410175C11.6661 0.251955 10.0138 0.720705 8.14465 1.66992C5.92981 2.80078 3.94348 4.58203 2.49036 6.73828C1.88098 7.65234 1.13098 9.19336 0.7677 10.2832C0.480591 11.1621 0.246216 12.1641 0.105591 13.1543C0.00598145 13.8457 0.00598145 16.1543 0.105591 16.8457C0.351685 18.5742 0.808716 20.0859 1.52356 21.5332C2.32629 23.1738 3.11731 24.2754 4.41809 25.582C5.71301 26.8711 6.83215 27.6738 8.40833 28.4473C9.50989 28.9863 10.2189 29.25 11.338 29.5313C14.2677 30.2695 17.2091 30.1289 20.0685 29.1152C20.9474 28.8047 22.4591 28.043 23.2325 27.5273C25.0021 26.3438 26.59 24.7148 27.7384 22.9102C28.1603 22.248 28.84 20.8418 29.1154 20.0625C30.4923 16.1836 30.2521 12.0234 28.4415 8.38477C27.715 6.91992 26.9005 5.76563 25.7579 4.58789C24.504 3.28711 23.2384 2.36719 21.5919 1.55274C19.8575 0.697268 18.2404 0.234377 16.3185 0.0585957C15.7208 0.00586128 14.3673 -0.00585747 13.8868 0.0410175ZM17.0802 2.04492C20.795 2.67188 23.9415 4.72266 26.004 7.875C27.0001 9.38672 27.6798 11.1738 27.9904 13.0957C28.131 13.9922 28.131 16.0078 27.9904 16.9043C27.3575 20.8184 25.213 24.0645 21.8849 26.1621C20.4611 27.0586 18.7384 27.6914 16.9044 27.9902C16.0021 28.1309 13.9923 28.1309 13.0958 27.9844C10.1837 27.5098 7.78137 26.2969 5.73645 24.2578C3.71497 22.248 2.4845 19.8164 2.00989 16.9043C1.86926 16.0078 1.86926 13.9922 2.00989 13.0957C2.62512 9.30469 4.62903 6.16406 7.76965 4.06641C9.56262 2.86524 11.7247 2.11524 13.9454 1.91016C14.5782 1.85156 16.3947 1.9336 17.0802 2.04492Z" fill="#001529"/>
<path d="M9.89665 9.5625C9.50994 9.78516 9.34001 10.2773 9.49236 10.7051C9.52751 10.793 10.4826 11.8008 11.6193 12.9316L13.6818 15L11.6193 17.0625C10.4826 18.1992 9.52751 19.207 9.49236 19.2949C9.33415 19.7227 9.49236 20.1563 9.89665 20.4316C10.1135 20.5781 10.4299 20.6074 10.7052 20.5078C10.7931 20.4727 11.801 19.5176 12.9377 18.3809L15.0002 16.3184L17.0685 18.3809C18.1994 19.5176 19.2072 20.4727 19.2951 20.5078C20.051 20.7832 20.7834 20.0508 20.508 19.2949C20.4728 19.207 19.5177 18.1992 18.381 17.0625L16.3185 15L18.381 12.9316C19.5177 11.8008 20.4728 10.793 20.508 10.7051C20.6662 10.2773 20.4845 9.7793 20.0978 9.55664C19.8576 9.42188 19.465 9.39258 19.2599 9.49805C19.1896 9.53321 18.1994 10.4883 17.0685 11.6191L15.0002 13.6816L12.9377 11.6191C11.801 10.4824 10.7931 9.52735 10.7052 9.49219C10.4474 9.39844 10.1252 9.42188 9.89665 9.5625Z" fill="#001529"/>
</svg>
