<svg width="30" height="30" viewBox="0 0 30 30" fill="none" xmlns="http://www.w3.org/2000/svg">
<path d="M14.1458 3.52579C13.9388 3.61777 13.833 3.71436 13.7272 3.92132C13.6445 4.08689 13.6399 4.33985 13.6399 12.4298V20.7681L12.2049 19.3332C10.7378 17.8706 10.5952 17.7557 10.2733 17.7557C10.0847 17.7557 9.78574 17.8936 9.65237 18.0362C9.4362 18.2708 9.39021 18.6939 9.54199 18.9882C9.67536 19.2412 13.9434 23.4816 14.155 23.5736C14.3803 23.6656 14.5873 23.661 14.8126 23.5552C15.038 23.4494 19.3612 19.1308 19.4302 18.9376C19.5406 18.6479 19.4762 18.2478 19.283 18.0362C19.1589 17.9028 18.8553 17.7557 18.6989 17.7557C18.331 17.7557 18.2758 17.7971 16.7581 19.3102L15.2956 20.7635V12.4298C15.2956 4.33985 15.291 4.08689 15.2082 3.92132C15.1024 3.70976 14.9966 3.61317 14.7758 3.52119C14.5689 3.43381 14.3527 3.43381 14.1458 3.52579Z" fill="#001529"/>
<path d="M4.05062 18.6709C3.81606 18.7767 3.63209 18.9928 3.5677 19.232C3.53091 19.3562 3.52171 20.3036 3.53551 22.1847C3.54931 25.2247 3.53551 25.0591 3.84365 25.6708C4.02302 26.0204 4.45075 26.4619 4.81408 26.6689C4.96126 26.7516 5.23721 26.8574 5.43497 26.908C5.78451 27 5.96388 27 14.4678 27C22.9716 27 23.151 27 23.5006 26.908C24.3606 26.6919 24.9953 26.0756 25.3126 25.1649C25.377 24.981 25.3862 24.5716 25.4 22.1847C25.4138 20.3036 25.4046 19.3562 25.3678 19.232C25.2758 18.8871 24.9079 18.5881 24.5722 18.5835C24.2686 18.5835 23.9421 18.8043 23.7995 19.1124C23.7213 19.2826 23.7121 19.4711 23.7121 21.9777C23.7121 24.1485 23.6983 24.6866 23.6477 24.8062C23.5741 24.9856 23.3672 25.1833 23.1924 25.2477C23.1004 25.2845 20.4283 25.2983 14.4632 25.2983C7.26544 25.2983 5.8397 25.2891 5.71552 25.2339C5.53615 25.1603 5.33839 24.9534 5.274 24.7786C5.24181 24.6912 5.22341 23.7484 5.22341 21.9731C5.22341 19.4711 5.21421 19.2826 5.13602 19.1124C5.03484 18.8917 4.88767 18.7491 4.66231 18.6525C4.43695 18.5605 4.27598 18.5651 4.05062 18.6709Z" fill="#001529"/>
</svg>
