<svg width="30" height="30" viewBox="0 0 30 30" fill="none" xmlns="http://www.w3.org/2000/svg">
<path d="M3.75 12.5V23.75C3.75 24.413 4.01339 25.0489 4.48223 25.5178C4.95107 25.9866 5.58696 26.25 6.25 26.25H23.75C24.413 26.25 25.0489 25.9866 25.5178 25.5178C25.9866 25.0489 26.25 24.413 26.25 23.75V12.5" stroke="#001529" stroke-width="1.2"/>
<path d="M18.5411 26.25V18.75C18.5411 18.087 18.2777 17.4511 17.8089 16.9822C17.3401 16.5134 16.7042 16.25 16.0411 16.25H13.5411C12.8781 16.25 12.2422 16.5134 11.7734 16.9822C11.3045 17.4511 11.0411 18.087 11.0411 18.75V26.25" stroke="#001529" stroke-width="1.2" stroke-miterlimit="16"/>
<path d="M27.2725 11.705L25.155 4.29375C25.1102 4.13706 25.0155 3.99923 24.8854 3.90112C24.7553 3.80301 24.5967 3.74996 24.4338 3.75H19.375L19.9688 10.88C19.9777 10.9946 20.0139 11.1055 20.0744 11.2033C20.1348 11.3012 20.2177 11.3832 20.3163 11.4425C20.8038 11.7337 21.7562 12.2712 22.5 12.5C23.77 12.8912 25.625 12.75 26.6825 12.62C26.7853 12.6067 26.884 12.5711 26.9716 12.5158C27.0593 12.4604 27.1338 12.3866 27.19 12.2995C27.2461 12.2124 27.2826 12.114 27.2969 12.0114C27.3111 11.9087 27.3028 11.8041 27.2725 11.705Z" stroke="#001529" stroke-width="1.2"/>
<path d="M17.5 12.5C18.21 12.2813 19.11 11.7825 19.6125 11.485C19.7296 11.4153 19.8247 11.3138 19.8866 11.1924C19.9485 11.071 19.9748 10.9345 19.9625 10.7987L19.375 3.75H10.625L10.0375 10.7987C10.0249 10.9347 10.0511 11.0714 10.1131 11.1931C10.175 11.3148 10.2702 11.4164 10.3875 11.4863C10.89 11.7825 11.79 12.2813 12.5 12.5C14.3662 13.075 15.6337 13.075 17.5 12.5V12.5Z" stroke="#001529" stroke-width="1.2"/>
<path d="M4.84494 4.29375L2.72744 11.7063C2.69755 11.8052 2.68956 11.9095 2.70403 12.0119C2.71849 12.1143 2.75506 12.2123 2.8112 12.2991C2.86733 12.3859 2.94169 12.4595 3.02911 12.5147C3.11653 12.5699 3.21492 12.6054 3.31744 12.6188C4.37369 12.75 6.22994 12.89 7.49994 12.5C8.24369 12.2713 9.19744 11.7338 9.68369 11.4438C9.78237 11.3843 9.86539 11.3021 9.92584 11.204C9.98629 11.106 10.0224 10.9949 10.0312 10.88L10.6249 3.75H5.56619C5.40322 3.74996 5.24467 3.80301 5.11453 3.90112C4.9844 3.99923 4.88976 4.13706 4.84494 4.29375V4.29375Z" stroke="#001529" stroke-width="1.2"/>
</svg>
