<svg width="30" height="30" viewBox="0 0 30 30" fill="none" xmlns="http://www.w3.org/2000/svg">
<rect width="30" height="30" fill="white"/>
<path d="M24.5833 15.5C24.3072 15.5 24.0847 15.724 24.0703 15.9998C23.9805 17.7197 23.4285 19.3871 22.4682 20.8242C21.4152 22.4002 19.9185 23.6285 18.1674 24.3538C16.4163 25.0792 14.4894 25.269 12.6304 24.8992C10.7714 24.5294 9.06382 23.6167 7.72356 22.2764C6.38331 20.9362 5.47059 19.2286 5.10081 17.3696C4.73104 15.5106 4.92082 13.5837 5.64616 11.8326C6.3715 10.0815 7.59982 8.58478 9.17579 7.53175C10.6129 6.57149 12.2803 6.01951 14.0002 5.92971C14.276 5.91531 14.5 5.69281 14.5 5.41667V4.5C14.5 4.22386 14.276 3.99887 14.0001 4.01087C11.9009 4.10218 9.86331 4.76721 8.11095 5.9381C6.21978 7.20174 4.7458 8.99779 3.87539 11.0991C3.00498 13.2005 2.77724 15.5128 3.22097 17.7435C3.6647 19.9743 4.75997 22.0234 6.36828 23.6317C7.97658 25.24 10.0257 26.3353 12.2565 26.779C14.4872 27.2228 16.7995 26.995 18.9009 26.1246C21.0022 25.2542 22.7983 23.7802 24.0619 21.8891C25.2328 20.1367 25.8978 18.0991 25.9891 15.9999C26.0011 15.724 25.7761 15.5 25.5 15.5H24.5833Z" fill="#001529"/>
<path d="M14.6372 17.4785L9.78969 12.3089C9.62252 12.1307 9.35096 12.0994 9.14761 12.2349L8.49392 12.6707C8.23589 12.8427 8.19507 13.2057 8.40844 13.4308L14.2741 19.6171C14.4714 19.8251 14.8029 19.825 15 19.6168L25.7259 8.28945C25.8863 8.1201 25.9083 7.86238 25.7789 7.66832L25.3484 7.02266C25.1701 6.75522 24.7894 6.72306 24.5688 6.9568L14.6372 17.4785Z" fill="#001529"/>
</svg>
