<svg width="30" height="30" viewBox="0 0 30 30" fill="none" xmlns="http://www.w3.org/2000/svg">
<path d="M13.6113 0.0585938C10.1074 0.398438 6.89648 1.91016 4.40625 4.39453C2.08008 6.7207 0.65625 9.5625 0.134766 12.9492C-0.00585938 13.8926 -0.00585938 16.1074 0.134766 17.0508C0.65625 20.4316 2.06836 23.2559 4.39453 25.5938C6.7207 27.9199 9.5625 29.3438 12.9492 29.8652C13.8926 30.0059 16.1074 30.0059 17.0508 29.8652C20.4316 29.3438 23.2559 27.9316 25.5938 25.6055C27.9199 23.2793 29.3438 20.4375 29.8652 17.0508C30.0059 16.1074 30.0059 13.8926 29.8652 12.9492C29.3438 9.56836 27.9316 6.74414 25.6055 4.40625C23.2969 2.0918 20.4199 0.650391 17.1094 0.146484C16.377 0.0351562 14.3672 -0.0117188 13.6113 0.0585938ZM16.9043 2.49023C19.6113 2.91211 21.9961 4.125 23.9355 6.06445C25.8926 8.02148 27.0879 10.3887 27.5215 13.1543C27.5918 13.6113 27.6211 14.1504 27.6211 15C27.6211 15.8496 27.5918 16.3887 27.5215 16.8457C27.0879 19.6113 25.8926 21.9785 23.9355 23.9355C21.9785 25.8926 19.6113 27.0879 16.8457 27.5215C15.9609 27.6621 14.0391 27.6621 13.1543 27.5215C10.3887 27.0879 8.02148 25.8926 6.06445 23.9355C4.10742 21.9785 2.91211 19.6113 2.47852 16.8457C2.33789 15.9609 2.33789 14.0391 2.47852 13.1543C2.91211 10.3887 4.10742 8.02148 6.06445 6.06445C8.2207 3.9082 10.7812 2.71289 13.9746 2.37891C14.4492 2.33203 16.3359 2.40234 16.9043 2.49023Z" fill="#001529"/>
<path d="M20.332 9.99609C20.2031 10.0488 18.8261 11.3848 16.541 13.6699L12.9492 17.25L11.4433 15.75C10.6113 14.9297 9.84959 14.2148 9.75584 14.1621C9.15233 13.8574 8.47264 14.0742 8.17381 14.6719C7.99803 15.0234 7.98631 15.3457 8.14451 15.668C8.21483 15.8262 8.97654 16.623 10.2949 17.9355C11.9004 19.5352 12.3808 19.9805 12.5625 20.0391C12.8613 20.1328 13.3125 20.0801 13.5527 19.916C13.834 19.7227 21.539 12.0234 21.7558 11.7187C21.9199 11.4844 21.9433 11.4082 21.9433 11.0625C21.9433 10.7227 21.9199 10.6406 21.7675 10.4238C21.4394 9.96093 20.8359 9.77929 20.332 9.99609Z" fill="#001529"/>
</svg>
