<svg width="30" height="30" viewBox="0 0 30 30" fill="none" xmlns="http://www.w3.org/2000/svg">
<path d="M14.8492 3.21107C13.1079 3.37521 11.7843 3.74571 10.3387 4.47263C8.43312 5.42466 6.66834 7.04265 5.50903 8.89982C4.66889 10.2411 4.05872 11.9717 3.80996 13.7069C3.73017 14.2603 3.73017 16.1081 3.80996 16.6615C4.00709 18.045 4.37319 19.2549 4.94581 20.4133C5.58882 21.7265 6.22246 22.6082 7.26443 23.654C8.3017 24.6858 9.19817 25.3283 10.4607 25.9473C11.3431 26.3788 11.9111 26.5898 12.8075 26.8149C15.1543 27.4059 17.5105 27.2933 19.8009 26.482C20.505 26.2334 21.7159 25.6237 22.3354 25.211C24.9638 23.457 26.8037 20.7932 27.4749 17.7636C27.6298 17.0601 27.7096 16.3988 27.7424 15.5828C27.8128 13.5849 27.3998 11.6809 26.508 9.88937C25.926 8.71692 25.2736 7.79302 24.3584 6.85037C23.354 5.80923 22.3401 5.07293 21.0213 4.42104C19.632 3.73633 18.3365 3.36583 16.797 3.22514C16.3183 3.18293 15.2341 3.17355 14.8492 3.21107ZM17.4072 4.81499C20.3548 5.31211 22.8424 6.91602 24.4992 9.39694C25.3393 10.6491 25.8885 12.0842 26.1466 13.66C26.2593 14.3775 26.2593 15.9908 26.1466 16.7084C25.6397 19.8412 23.9219 22.4393 21.2559 24.1183C20.1154 24.8358 18.7355 25.3423 17.2664 25.5815C16.5436 25.6941 14.9337 25.6941 14.2156 25.5768C11.1319 25.075 8.5927 23.4383 6.90772 20.8589C6.1192 19.6536 5.58882 18.2466 5.33537 16.7084C5.22273 15.9908 5.22273 14.3775 5.33537 13.66C5.71555 11.3291 6.7012 9.38287 8.32048 7.77426C10.1134 5.98744 12.3663 4.93692 14.8962 4.70712C15.4031 4.66022 16.8581 4.72588 17.4072 4.81499Z" fill="#001529"/>
<path d="M14.9902 11.587V15.4889L17.3511 17.8479L19.7073 20.2022L20.2376 19.6722L20.7633 19.147L18.6277 17.0131L16.4922 14.8792V11.2821V7.68036H15.7412H14.9902V11.587Z" fill="#001529"/>
</svg>
