<svg width="30" height="30" viewBox="0 0 30 30" fill="none" xmlns="http://www.w3.org/2000/svg">
<path d="M25.2632 29.0625H4.73684C3.67589 29.0625 2.8125 27.9584 2.8125 26.6016C2.8125 26.49 2.83046 23.8371 4.38405 21.1875C5.28849 19.6453 6.52648 18.4198 8.06467 17.547C9.94283 16.4789 12.2764 15.9375 15 15.9375C17.7236 15.9375 20.0572 16.4789 21.9353 17.547C23.4735 18.4214 24.7115 19.6453 25.616 21.1875C27.1695 23.8371 27.1875 26.49 27.1875 26.6016C27.1875 27.9584 26.3241 29.0625 25.2632 29.0625ZM15 17.547C10.5265 17.547 7.22566 19.1416 5.45398 22.0997C4.12618 24.3162 4.09668 26.5819 4.09539 26.6048C4.09539 27.0544 4.38276 27.4219 4.73684 27.4219H25.2632C25.6172 27.4219 25.9046 27.0544 25.9046 26.6016C25.9046 26.5819 25.8751 24.3162 24.546 22.0997C22.7731 19.1416 19.4722 17.547 15 17.547Z" fill="#001529"/>
<path d="M15 14.0625C11.3811 14.0625 8.4375 11.1189 8.4375 7.5C8.4375 3.88108 11.3811 0.9375 15 0.9375C18.6189 0.9375 21.5625 3.88108 21.5625 7.5C21.5625 11.1189 18.6189 14.0625 15 14.0625ZM15 2.13068C12.0397 2.13068 9.63068 4.53972 9.63068 7.5C9.63068 10.4603 12.0397 12.8693 15 12.8693C17.9603 12.8693 20.3693 10.4603 20.3693 7.5C20.3693 4.53972 17.9603 2.13068 15 2.13068Z" fill="#001529"/>
</svg>
