<svg width="30" height="30" viewBox="0 0 30 30" fill="none" xmlns="http://www.w3.org/2000/svg">
<path d="M14.9419 3.04046C14.5945 3.20226 14.4565 3.33551 9.43103 8.35623C6.59468 11.1878 4.20567 13.6149 4.11525 13.7482C3.75357 14.2859 3.64887 15.1045 3.85351 15.7231C4.16284 16.6416 4.89573 17.1841 5.94746 17.2698L6.32342 17.3031L6.3377 21.1864C6.35197 24.9984 6.35673 25.0745 6.45191 25.3315C6.79932 26.2452 7.34184 26.7925 8.17942 27.078C8.48875 27.1827 8.53634 27.1827 10.8016 27.1875C13.0241 27.1875 13.1145 27.1827 13.2668 27.0923C13.3524 27.04 13.4619 26.9305 13.5142 26.8449C13.6047 26.6926 13.6094 26.5974 13.6094 23.6659C13.6094 21.6052 13.6285 20.582 13.6618 20.4535C13.7427 20.168 13.9663 19.8777 14.2186 19.7302L14.4422 19.5969H15.9461H17.4499L17.6831 19.7397C17.9448 19.9015 18.1923 20.2679 18.2447 20.5582C18.2589 20.6582 18.2732 22.0716 18.2732 23.7039C18.2732 26.9162 18.2637 26.7925 18.535 27.0447L18.6634 27.1637L20.9525 27.178C22.4849 27.1875 23.3272 27.1732 23.4938 27.1399C24.1506 27.0019 24.912 26.4213 25.2118 25.8312C25.5449 25.1649 25.5259 25.4362 25.5449 21.1626L25.5592 17.2983L25.9494 17.265C26.8917 17.1841 27.5342 16.7653 27.9149 15.9801C28.0767 15.6565 28.0767 15.6422 28.0767 15.0045C28.0767 14.3621 28.0767 14.3573 27.9054 14.0051C27.7436 13.6577 27.6151 13.5245 22.5182 8.42762C17.4214 3.33075 17.2881 3.20226 16.9407 3.04046C16.5885 2.86913 16.5838 2.86913 15.9413 2.86913C15.2989 2.86913 15.2941 2.86913 14.9419 3.04046ZM16.2602 4.34442C16.4315 4.41104 26.4824 14.4525 26.5776 14.6524C26.7442 15.0045 26.6205 15.4519 26.3016 15.6613C26.116 15.785 26.0732 15.7898 25.3165 15.8135C24.4599 15.8373 24.3599 15.8659 24.1886 16.1324C24.1077 16.2514 24.103 16.5559 24.0792 20.5487C24.0554 24.4654 24.0506 24.8461 23.9745 25.0031C23.846 25.2744 23.6604 25.4695 23.3939 25.6075L23.1512 25.736L21.4522 25.7503L19.7533 25.7693L19.739 23.0139C19.7247 20.3203 19.7199 20.2584 19.6152 19.9539C19.3345 19.1306 18.7872 18.55 17.9877 18.2454C17.6831 18.1264 17.6545 18.1264 16.0746 18.1074C14.7278 18.0931 14.4232 18.1026 14.171 18.1645C13.1859 18.4167 12.4102 19.2115 12.2008 20.187C12.1484 20.4345 12.1341 21.0579 12.1341 23.1329V25.7693L10.4352 25.7503L8.73146 25.736L8.46972 25.5932C8.15087 25.4172 7.92244 25.1269 7.85581 24.808C7.8225 24.6414 7.80346 23.2423 7.80346 20.4393C7.80346 16.4322 7.7987 16.3085 7.70828 16.161C7.5322 15.8707 7.43702 15.8421 6.56613 15.8135C5.80945 15.7898 5.76662 15.785 5.58102 15.6613C5.26217 15.4519 5.13843 15.0045 5.305 14.6524C5.39542 14.4668 15.4464 4.41104 15.6082 4.34917C15.77 4.28731 16.0936 4.28731 16.2602 4.34442Z" fill="#001529"/>
</svg>
