<svg width="30" height="30" viewBox="0 0 30 30" fill="none" xmlns="http://www.w3.org/2000/svg">
<path d="M13.5643 0.0644493C10.0663 0.421871 6.87878 1.92773 4.40613 4.39453C-1.46497 10.2539 -1.46497 19.7461 4.40613 25.6055C6.78503 27.9785 9.68542 29.4023 13.1542 29.8945C13.8514 29.9941 16.1542 29.9883 16.8749 29.8887C20.2675 29.4199 23.2616 27.9492 25.5995 25.5996C27.2928 23.9004 28.4999 21.9316 29.2382 19.6875C29.7069 18.2637 29.9237 17.0625 29.9823 15.5273C30.1346 11.3613 28.5643 7.36523 25.5936 4.39453C23.2909 2.08593 20.3729 0.626949 17.08 0.140621C16.3651 0.0351524 14.285 -0.0117226 13.5643 0.0644493ZM17.1678 2.27929C21.2928 3.02929 24.6796 5.54882 26.537 9.24609C28.0018 12.1641 28.2948 15.5391 27.3573 18.6914C26.6542 21.0644 25.1835 23.3027 23.3085 24.8555C20.8944 26.8652 18.076 27.8906 14.9999 27.8906C11.5428 27.8906 8.33777 26.5605 5.88855 24.1113C3.9491 22.1719 2.74792 19.834 2.24402 17.0215C2.09753 16.1836 2.09753 13.8164 2.24402 12.9785C2.74792 10.166 3.9491 7.82812 5.88855 5.88867C7.98035 3.79687 10.5116 2.57226 13.5643 2.16796C14.285 2.07421 16.4003 2.13867 17.1678 2.27929Z" fill="#001529"/>
<path d="M14.666 7.44726C14.4023 7.52343 14.0801 7.86328 14.0098 8.12695C13.9746 8.25 13.9453 8.68945 13.9453 9.11132C13.9453 9.9375 14.0215 10.207 14.3027 10.4707C14.7129 10.8457 15.4219 10.7988 15.7793 10.3769C16.0195 10.084 16.0664 9.83203 16.0488 8.92968C16.0254 8.20312 16.0137 8.09179 15.8906 7.89843C15.6445 7.50586 15.1172 7.30664 14.666 7.44726Z" fill="#001529"/>
<path d="M14.4961 12.0645C14.2618 12.2109 14.0801 12.4453 13.9981 12.709C13.9571 12.8496 13.9453 14.3848 13.9571 17.4023L13.9746 21.8848L14.1094 22.1016C14.5196 22.7578 15.4805 22.7578 15.8907 22.1016L16.0254 21.8848L16.043 17.4023C16.0547 14.3203 16.043 12.8496 15.9961 12.7031C15.92 12.4453 15.6914 12.1582 15.4629 12.041C15.2286 11.918 14.7188 11.9297 14.4961 12.0645Z" fill="#001529"/>
</svg>
